<svg xmlns="http://www.w3.org/2000/svg" viewBox="0 0 400 120" fill="none">
  <!-- Ruyin lockup: symbol + wordmark (dark theme) -->
  <rect x="2" y="8" width="64" height="64" rx="14" ry="14"
        stroke="#ffffff" stroke-width="2.5" fill="none" opacity="0.9"/>
  <path d="M20 54V26h12.5c3.8 0 6.8 1 9 3s3.3 4.7 3.3 7.8c0 3.4-1.1 6.1-3.3 8.1s-5.2 3-9 3H28v6h-8zm8-13.5h4c2.2 0 3.9-.6 5.1-1.8s1.8-2.8 1.8-4.9c0-2-.6-3.6-1.8-4.7s-2.9-1.7-5.1-1.7H28v13.1z"
        fill="#ffffff" opacity="0.95"/>
  <text x="82" y="40" font-family="system-ui, -apple-system, sans-serif"
        font-size="32" font-weight="700" fill="#ffffff" letter-spacing="1">
    Ruyin
  </text>
  <text x="82" y="66" font-family="system-ui, -apple-system, sans-serif"
        font-size="14" font-weight="400" fill="#ffffff" opacity="0.6" letter-spacing="2">
    如影随形
  </text>
  <line x1="82" y1="78" x2="380" y2="78"
        stroke="#ffffff" stroke-width="1" opacity="0.2"/>
</svg>
