<svg xmlns="http://www.w3.org/2000/svg" xmlns:xlink="http://www.w3.org/1999/xlink" version="1.1" width="256" height="256" viewBox="0 0 256 256" xml:space="preserve">
<g style="stroke: none; stroke-width: 0; stroke-dasharray: none; stroke-linecap: butt; stroke-linejoin: miter; stroke-miterlimit: 10; fill: none; fill-rule: nonzero; opacity: 1;" transform="translate(1.4065934065934016 1.4065934065934016) scale(2.81 2.81)">
	<circle cx="15.514" cy="15.514" r="16.014" style="stroke: none; stroke-width: 1; stroke-dasharray: none; stroke-linecap: butt; stroke-linejoin: miter; stroke-miterlimit: 10; fill: rgb(204,204,204); fill-rule: nonzero; opacity: 1;" transform="  matrix(2.81 0 0 2.81 1.4065934065934016 1.4065934065934016) "/>
	<path d="M 18.37 15.807 c 1.271 -0.899 2.105 -2.378 2.105 -4.05 c 0 -2.736 -2.226 -4.962 -4.962 -4.962 s -4.962 2.226 -4.962 4.962 c 0 1.672 0.834 3.151 2.105 4.05 c -3.132 1.163 -5.37 4.182 -5.37 7.714 c 0 0.393 0.319 0.712 0.712 0.712 s 0.712 -0.319 0.712 -0.712 c 0 -3.751 3.052 -6.803 6.803 -6.803 s 6.803 3.052 6.803 6.803 c 0 0.393 0.319 0.712 0.712 0.712 s 0.712 -0.319 0.712 -0.712 C 23.74 19.989 21.502 16.97 18.37 15.807 z M 11.976 11.756 c 0 -1.951 1.587 -3.538 3.538 -3.538 c 1.951 0 3.538 1.587 3.538 3.538 s -1.587 3.538 -3.538 3.538 C 13.563 15.294 11.976 13.707 11.976 11.756 z" style="stroke: none; stroke-width: 1; stroke-dasharray: none; stroke-linecap: butt; stroke-linejoin: miter; stroke-miterlimit: 10; fill: rgb(255,255,255); fill-rule: nonzero; opacity: 1;" transform=" matrix(2.81 0 0 2.81 1.4065934065934016 1.4065934065934016) " stroke-linecap="round"/>
</g>
</svg>